<svg width="50" height="50" xmlns="http://www.w3.org/2000/svg" class="feather feather-github" stroke-linejoin="round" stroke-linecap="round" stroke-width="1.5" stroke="#9A97F3" fill="none">

 <g>
  <title>Layer 1</title>
  <path stroke="null" id="svg_1" d="m19.85256,37.15862c-9.35897,2.42739 -9.35897,-4.04565 -13.10256,-4.85478m26.20513,9.70955l0,-6.26266a6.30795,5.45353 0 0 0 -1.75949,-4.22366c5.87744,-0.56639 12.05436,-2.49212 12.05436,-11.32781a10.18256,8.80333 0 0 0 -2.80769,-6.06847a9.49,8.20457 0 0 0 -0.16846,-6.10084s-2.20872,-0.56639 -7.31872,2.39502a25.04461,21.6523 0 0 0 -13.10256,0c-5.11,-2.96141 -7.31872,-2.39502 -7.31872,-2.39502a9.49,8.20457 0 0 0 -0.16846,6.10084a10.18256,8.80333 0 0 0 -2.80769,6.11702c0,8.77096 6.17692,10.69669 12.05436,11.32781a6.30795,5.45353 0 0 0 -1.75949,4.17511l0,6.26266"/>
 </g>
</svg>